<svg width="400" height="89" viewBox="0 0 400 89" fill="none" xmlns="http://www.w3.org/2000/svg">
<path fill-rule="evenodd" clip-rule="evenodd" d="M55.7838 44.0144C55.7838 46.1909 56.6705 47.2389 58.5246 47.9644C62.1522 49.4154 65.6991 48.9317 69.5685 48.2868C77.6297 46.9164 85.7716 40.7093 85.7716 32.4062C85.7716 30.8745 85.4491 31.0358 85.4491 29.2623C79.0808 29.1817 55.7838 36.195 55.7838 44.0144ZM0 42.1603C0 47.9644 0.806124 51.3501 0.806124 52.8011H1.61225C1.85409 49.7378 3.8694 44.4174 5.07858 42.0797C13.7847 25.4735 30.2296 16.4449 48.448 12.5755C69.0042 8.14185 91.3338 8.06124 111.406 14.7521C112.777 15.2357 114.631 16.0419 115.921 16.2031L108.827 27.9725C107.94 29.5041 107.456 30.7133 106.65 32.4868C103.829 38.1297 101.007 45.9491 101.007 53.6072C96.3318 53.6072 87.3032 52.3981 79.7257 52.3981C74.1634 52.3981 65.5379 53.1236 60.0562 54.0103C54.0103 55.0583 50.4634 56.2675 43.2082 52.6399C36.3562 49.2542 35.8725 41.6766 41.1123 37.8072C43.3695 36.1144 45.1429 34.9052 47.9644 33.6154C55.8644 29.9878 74.7277 26.1184 84.4818 26.0378C99.3951 25.8766 104.232 12.2531 89.2379 12.2531C73.4379 12.2531 61.346 13.7847 47.3195 20.798C40.4674 24.1837 33.0511 28.8592 29.5848 35.7919C26.9245 40.9511 26.9245 41.9184 26.9245 47.4001C26.9245 50.0603 30.8745 54.494 32.5674 55.945C46.7552 69.0848 78.5165 66.5052 96.7349 60.4593C100.121 59.3307 102.378 58.444 105.602 57.0736C110.358 55.0583 116.969 51.0276 120.274 47.7225C126.481 41.5154 129.06 38.1297 129.06 28.8592C129.06 24.2643 125.594 18.4602 122.45 15.3164C121.563 14.4296 120.919 14.1072 119.871 13.1398C116.888 10.4796 113.986 9.02859 110.358 7.25512C101.572 2.90205 89.4798 0.483674 77.2267 0H67.5532C59.492 0.32245 51.7532 1.53164 45.3042 3.46633C28.295 8.70614 0 20.8786 0 42.1603Z" fill="#3A3E93"/>
<path d="M390.325 33.7766H379.281L379.362 33.5348C380.087 29.1011 382.748 26.7633 386.133 26.7633C389.519 26.7633 391.212 29.0205 390.486 33.5348L390.325 33.7766ZM399.112 38.3715L399.676 34.8246C401.208 25.6348 397.339 18.8633 387.343 18.8633C377.669 18.8633 370.898 25.0705 369.285 34.8246L368.56 39.097C366.545 50.7858 373.8 54.6552 381.216 54.6552C386.536 54.6552 389.842 54.1716 393.953 53.2042C395.001 52.9624 395.323 52.5593 395.484 51.592L396.291 46.9971C396.371 46.3522 395.968 46.0297 395.323 46.0297C395.243 46.0297 395.162 46.0297 395.162 46.0297C392.663 46.2715 387.262 46.594 383.393 46.594C378.556 46.594 377.669 43.4501 378.233 39.9838V39.8226H397.661C398.386 39.8226 398.951 39.2583 399.112 38.3715ZM353.405 46.2715C352.196 46.4328 350.342 46.6746 348.326 46.6746C343.973 46.6746 343.489 43.5307 344.215 39.1777L345.021 34.4215C345.747 30.1491 347.359 27.0052 351.712 27.0052C353.163 27.0052 355.178 27.1664 356.629 27.3276L353.405 46.2715ZM362.353 51.3501L369.608 8.86739C369.688 8.22249 369.205 7.6582 368.56 7.6582H361.144C360.499 7.6582 359.854 8.22249 359.693 8.86739L357.919 19.347C356.226 19.1052 354.211 18.9439 353.002 18.9439C342.764 18.9439 336.718 24.9093 335.106 34.5021L334.3 39.2583C332.607 49.093 337.04 54.8165 346.956 54.8165C351.631 54.8165 356.549 54.0909 360.176 53.2042C361.869 52.7205 362.192 52.3175 362.353 51.3501ZM319.548 45.9491C317.935 46.6746 316.162 47.3195 314.308 47.3195C311.728 47.3195 310.519 46.8358 311.003 44.2562L311.083 43.6919C311.567 40.7093 312.937 39.2583 317.21 39.2583H320.676L319.548 45.9491ZM328.012 52.8818L331.72 31.197C333.252 22.3297 328.334 18.8633 319.628 18.8633C315.598 18.8633 311.244 19.5888 308.907 20.1531C308.181 20.3144 307.617 20.798 307.536 21.5235L306.73 26.4409C306.569 27.247 307.053 27.5695 307.617 27.5695H307.939C309.874 27.4082 314.227 27.1664 318.097 27.1664C320.918 27.1664 322.53 27.8919 321.966 31.3582L321.563 33.5348H318.258C307.859 33.5348 302.78 36.6787 301.571 43.7726L301.49 44.3368C300.12 52.2369 304.796 54.7358 310.116 54.7358C313.743 54.7358 316.404 53.6879 319.064 51.995L318.903 52.9624C318.822 53.6073 319.225 54.1716 319.951 54.1716H326.722C327.286 54.0909 327.931 53.6073 328.012 52.8818ZM287.383 46.2715C286.174 46.4328 284.32 46.6746 282.305 46.6746C277.952 46.6746 277.468 43.5307 278.193 39.1777L279 34.4215C279.725 30.1491 281.337 27.0052 285.69 27.0052C287.141 27.0052 289.157 27.1664 290.608 27.3276L287.383 46.2715ZM296.412 51.3501L303.667 8.86739C303.748 8.22249 303.264 7.6582 302.619 7.6582H295.283C294.638 7.6582 293.993 8.22249 293.832 8.86739L292.059 19.347C290.366 19.1052 288.351 18.9439 287.141 18.9439C276.904 18.9439 270.858 24.9093 269.245 34.5021L268.439 39.2583C266.746 49.093 271.18 54.8165 281.095 54.8165C285.771 54.8165 290.688 54.0909 294.316 53.2042C295.928 52.7205 296.251 52.3175 296.412 51.3501ZM261.829 52.8818L267.311 20.5562C267.391 19.9113 266.988 19.347 266.263 19.347H258.846C258.202 19.347 257.557 19.9113 257.395 20.5562L251.914 52.8818C251.833 53.5267 252.236 54.0909 252.962 54.0909H260.378C261.023 54.0909 261.668 53.6073 261.829 52.8818ZM268.601 14.1878L269.568 8.54494C269.648 7.90004 269.245 7.33576 268.52 7.33576H260.62C259.975 7.33576 259.33 7.90004 259.169 8.54494L258.202 14.1878C258.121 14.8327 258.524 15.397 259.249 15.397H267.149C267.875 15.397 268.52 14.9133 268.601 14.1878ZM246.674 52.8818L250.14 32.648C251.43 24.9899 250.543 18.8633 241.676 18.8633C237.807 18.8633 234.985 19.6695 231.196 22.0072L231.438 20.5562C231.519 19.9113 231.116 19.347 230.39 19.347H223.619C222.974 19.347 222.329 19.9113 222.168 20.5562L216.686 52.8011C216.606 53.446 217.089 54.0909 217.734 54.0909H225.07C225.715 54.0909 226.36 53.446 226.521 52.8011L230.551 28.9399C232.809 27.8113 234.824 27.0052 236.597 27.0052C240.306 27.0052 240.87 28.3756 240.144 32.648L236.678 52.8818C236.597 53.5267 237 54.1716 237.645 54.1716H244.981C245.868 54.0909 246.593 53.5267 246.674 52.8818ZM218.298 14.1878L219.266 8.54494C219.346 7.90004 218.863 7.33576 218.218 7.33576H210.398C209.753 7.33576 208.947 7.90004 208.867 8.54494L207.899 14.1878C207.819 14.8327 208.383 15.397 209.028 15.397H216.767C217.412 15.397 218.137 14.9133 218.298 14.1878ZM203.304 13.4623L204.111 8.70617C204.191 8.06127 203.869 7.57759 203.143 7.49698C201.37 7.17453 200.161 7.01331 198.387 7.01331C191.696 7.01331 187.908 8.78678 186.376 17.4123L186.053 19.347H181.217C180.572 19.347 179.846 19.9919 179.685 20.6368L179.04 24.6674C178.96 25.3123 179.443 25.796 180.088 25.9572L184.844 26.7633L180.411 52.9624C180.33 53.6073 180.733 54.1716 181.459 54.1716H188.955C189.6 54.1716 190.245 53.6073 190.406 52.9624L194.84 26.7633H206.126L201.692 52.8818C201.612 53.5267 202.095 54.1716 202.74 54.1716H210.076C210.721 54.1716 211.366 53.5267 211.527 52.8818L217.009 20.7174C217.089 20.0725 216.686 19.4276 216.041 19.4276H196.13L196.452 17.4123C196.855 14.9939 197.097 14.5909 198.951 14.5909H201.934C202.66 14.5103 203.224 14.1878 203.304 13.4623ZM164.207 34.744H155.179L161.708 17.9766C161.95 17.3317 162.192 17.0899 162.676 17.0899C163.24 17.0899 163.321 17.4123 163.321 17.9766L164.207 34.744ZM175.735 53.1236C175.735 53.043 175.735 52.9624 175.735 52.8011L173.075 15.2358C172.672 9.43168 168.399 8.46433 164.207 8.46433C160.016 8.46433 155.34 9.35106 153.002 15.2358L137.525 52.8011C137.525 52.9624 137.444 53.043 137.444 53.1236C137.364 53.7685 137.686 54.0909 138.331 54.0909H146.715C147.359 54.0909 147.924 53.6073 148.085 52.9624L151.954 43.047H164.449L164.933 52.9624C164.933 53.6073 165.336 54.0909 165.981 54.0909H174.526C175.09 54.0909 175.574 53.7685 175.735 53.1236Z" fill="#3A3E93"/>
<path d="M394.034 82.3052C394.437 79.8869 393.469 78.194 390.325 76.0981L387.826 74.4052C385.73 73.0348 384.924 72.1481 385.166 70.697C385.569 68.4399 387.02 67.795 390.164 67.795C391.938 67.795 394.034 67.8756 395.404 67.9562C395.404 67.9562 395.404 67.9562 395.485 67.9562C395.807 67.9562 396.049 67.795 396.049 67.4726L396.291 66.1828C396.371 65.8603 396.129 65.6991 395.888 65.6991C394.759 65.5379 392.421 65.296 390.648 65.296C386.053 65.296 383.07 66.9889 382.425 70.697C382.022 73.1154 383.151 74.6471 385.65 76.3399L388.31 78.1134C390.809 79.8063 391.535 80.693 391.293 82.144C390.97 84.2399 389.68 85.691 386.053 85.691C384.682 85.691 382.425 85.6103 381.055 85.5297H380.974C380.732 85.5297 380.41 85.691 380.41 86.0134L380.168 87.2226C380.088 87.545 380.168 87.7063 380.652 87.7869C381.942 88.0287 383.473 88.1899 385.65 88.1899C391.454 88.3512 393.469 85.2073 394.034 82.3052ZM377.911 79.9675L380.249 66.1828C380.329 65.8603 380.088 65.6185 379.765 65.6185H378.153C377.83 65.6185 377.508 65.8603 377.508 66.1828L375.17 79.9675C374.525 83.9175 372.913 86.0134 369.124 86.0134C365.335 86.0134 364.529 83.9175 365.174 79.9675L367.512 66.1828C367.593 65.8603 367.351 65.6185 367.028 65.6185H365.416C365.094 65.6185 364.771 65.8603 364.771 66.1828L362.433 79.9675C361.466 85.7716 363.884 88.3512 368.802 88.3512C373.639 88.3512 376.944 85.7716 377.911 79.9675ZM360.499 87.7063L360.741 86.2552C360.741 86.0134 360.66 85.8522 360.499 85.8522H354.614C351.39 85.8522 350.986 84.9654 351.39 82.7083L354.211 66.1828C354.292 65.8603 354.05 65.5379 353.727 65.5379H352.196C351.873 65.5379 351.551 65.7797 351.47 66.1828L348.649 82.7083C347.762 87.7063 350.906 88.3512 354.211 88.3512C357.113 88.3512 359.37 88.1899 360.176 88.1093C360.338 88.1093 360.499 87.8675 360.499 87.7063ZM344.941 72.3899C344.376 75.5338 342.603 76.9042 338.411 76.9042C337.605 76.9042 336.073 76.8236 335.348 76.743L336.879 67.8756C337.605 67.795 338.975 67.7144 339.943 67.7144C343.893 67.7144 345.505 68.9236 344.941 71.9869V72.3899ZM347.681 72.3899L347.762 71.9869C348.568 67.0695 345.263 65.3766 340.346 65.3766C338.572 65.3766 336.557 65.4572 335.267 65.6185C334.783 65.6991 334.461 65.9409 334.38 66.344L330.753 87.545C330.672 87.8675 330.914 88.1899 331.236 88.1899H332.849C333.171 88.1899 333.413 87.8675 333.494 87.545L334.945 79.0001C335.751 79.0807 336.96 79.1613 337.927 79.1613C342.925 79.1613 346.795 77.4685 347.681 72.3899ZM328.979 76.9042L329.221 75.695C329.302 75.3726 329.06 75.2113 328.657 75.2113H323.417L324.304 69.9715C324.384 69.6491 324.223 69.3266 323.901 69.3266H322.692C322.369 69.3266 322.127 69.5685 322.127 69.9715L321.241 75.2113H316.001C315.678 75.2113 315.356 75.3726 315.275 75.695L315.033 76.9042C314.953 77.2267 315.195 77.3879 315.598 77.3879H320.837L319.951 82.5471C319.87 82.8695 320.031 83.192 320.354 83.192H321.563C321.885 83.192 322.127 82.9501 322.127 82.5471L323.014 77.3879H328.254C328.657 77.3879 328.979 77.2267 328.979 76.9042Z" fill="#808285"/>
</svg>
